<?xml version="1.0" encoding="UTF-8"?>
<svg width="20px" height="20px" viewBox="0 0 20 20" version="1.1" xmlns="http://www.w3.org/2000/svg" xmlns:xlink="http://www.w3.org/1999/xlink">
    <!-- Generator: Sketch 50.2 (55047) - http://www.bohemiancoding.com/sketch -->
    <title>check-icon</title>
    <desc>Created with Sketch.</desc>
    <defs></defs>
    <g id="check-icon" stroke="none" stroke-width="1" fill="none" fill-rule="evenodd">
        <path d="M16.71875,7.890625 C16.71875,7.66927083 16.640625,7.44791667 16.484375,7.29166667 L15.2994792,6.11979167 C15.1432292,5.96354167 14.9348958,5.87239583 14.7135417,5.87239583 C14.4921875,5.87239583 14.2838542,5.96354167 14.1276042,6.11979167 L8.81510417,11.4192708 L5.87239583,8.4765625 C5.71614583,8.3203125 5.5078125,8.22916667 5.28645833,8.22916667 C5.06510417,8.22916667 4.85677083,8.3203125 4.70052083,8.4765625 L3.515625,9.6484375 C3.359375,9.8046875 3.28125,10.0260417 3.28125,10.2473958 C3.28125,10.46875 3.359375,10.6770833 3.515625,10.8333333 L8.22916667,15.546875 C8.38541667,15.703125 8.60677083,15.7942708 8.81510417,15.7942708 C9.03645833,15.7942708 9.2578125,15.703125 9.4140625,15.546875 L16.484375,8.4765625 C16.640625,8.3203125 16.71875,8.11197917 16.71875,7.890625 Z M20,10 C20,15.5208333 15.5208333,20 10,20 C4.47916667,20 0,15.5208333 0,10 C0,4.47916667 4.47916667,0 10,0 C15.5208333,0 20,4.47916667 20,10 Z" id="Check-Circle---FontAwesome" fill="#F0F000"></path>
    </g>
</svg>