<?xml version="1.0" encoding="UTF-8"?>
<svg width="20px" height="20px" viewBox="0 0 20 20" version="1.1" xmlns="http://www.w3.org/2000/svg" xmlns:xlink="http://www.w3.org/1999/xlink">
    <!-- Generator: Sketch 49.3 (51167) - http://www.bohemiancoding.com/sketch -->
    <title>Artboard</title>
    <desc>Created with Sketch.</desc>
    <defs></defs>
    <g id="Artboard" stroke="none" stroke-width="1" fill="none" fill-rule="evenodd" opacity="0.5">
        <path d="M9.999375,0 C4.4775,0 0,4.59025196 0,10.253891 C0,14.7832643 2.865,18.6263107 6.839375,19.982303 C7.339375,20.0765048 7.521875,19.7599357 7.521875,19.4882245 C7.521875,19.2447098 7.513125,18.6000367 7.508125,17.7445312 C4.72625,18.364212 4.139375,16.3699548 4.139375,16.3699548 C3.685,15.1857044 3.029375,14.870417 3.029375,14.870417 C2.12125,14.2340746 3.098125,14.2468912 3.098125,14.2468912 C4.10125,14.3193048 4.629375,15.3036168 4.629375,15.3036168 C5.521875,16.8704416 6.97,16.4180169 7.54,16.1552774 C7.630625,15.4926611 7.889375,15.0408772 8.175,14.784546 C5.954375,14.5256514 3.62,13.6464352 3.62,9.7175179 C3.62,8.59799114 4.009375,7.68288856 4.649375,6.96580187 C4.54625,6.70626647 4.203125,5.66427992 4.746875,4.25253553 C4.746875,4.25253553 5.586875,3.97697943 7.496875,5.30349368 C8.295,5.07599969 9.15,4.96257311 10.000625,4.95808731 C10.85,4.96257311 11.705625,5.07599969 12.504375,5.30349368 C14.413125,3.97697943 15.25125,4.25253553 15.25125,4.25253553 C15.796875,5.66427992 15.45375,6.70626647 15.350625,6.96580187 C15.991875,7.68288856 16.37875,8.59799114 16.37875,9.7175179 C16.37875,13.6560476 14.040625,14.5230881 11.813125,14.7768561 C12.171875,15.0934252 12.491875,15.7188734 12.491875,16.6756298 C12.491875,18.0463612 12.479375,19.1517898 12.479375,19.4882245 C12.479375,19.762499 12.659375,20.0816314 13.166875,19.9810214 C17.1375,18.6224657 20,14.7819827 20,10.253891 C20,4.59025196 15.5225,0 9.999375,0" id="Github" fill="#0065AD"></path>
    </g>
</svg>