<svg xmlns="http://www.w3.org/2000/svg" width="26" height="26" viewBox="0 0 26 26">
  <path fill="#FFF" d="M27.8252471,12.9396636 L27.7169053,12.2554001 L25.6270504,11.556881 C25.4445801,10.9923636 25.2164923,10.4392505 24.9456379,9.91179737 L25.9321179,7.94168855 L25.527262,7.37717112 C24.7061457,6.25668954 23.7253679,5.27591178 22.6105885,4.4661999 L22.0489222,4.06134396 L20.0788134,5.04782393 C19.5485091,4.7769696 18.9982472,4.54888175 18.4337298,4.36641147 L17.7380618,2.28225872 L17.0595004,2.17676809 C16.3039594,2.05702196 15.651058,2 15.0010076,2 C14.3680638,2 13.7123112,2.05702196 12.9396636,2.17961918 L12.2554001,2.28796091 L11.5597321,4.38066696 C10.9838103,4.56883944 10.4306972,4.79692729 9.91464847,5.05922832 L7.94739075,4.06989726 L7.38572441,4.4747532 C6.26809393,5.28446507 5.28731617,6.26239174 4.4719021,7.38572441 L4.06704616,7.95024184 L5.05352612,9.92035067 C4.7855229,10.4478038 4.55743504,10.9980658 4.37496476,11.5625832 L2.28510982,12.2554001 L2.17676809,12.9396636 C2.05702196,13.6952046 2,14.3680638 2,15.0038587 C2,15.6425047 2.05702196,16.3153638 2.17676809,17.0652026 L2.28510982,17.7494662 L4.37496476,18.4479852 C4.55743504,19.0125027 4.7855229,19.5656157 5.05637722,20.0930689 L4.07559946,22.0574755 L4.48045539,22.6162907 C4.90241792,23.203617 5.33863594,23.7196657 5.81191823,24.1957991 C6.25383844,24.6405704 6.76988721,25.0767884 7.38857551,25.5301131 L7.95024184,25.934969 L9.91749957,24.948489 C10.4478038,25.2193434 10.9980658,25.4502823 11.5625832,25.6299015 L12.2582512,27.7226075 L12.9425147,27.8309493 C13.6923535,27.9506954 14.3652127,28.0077173 15.0010076,28.0077173 C15.6368025,28.0077173 16.3096616,27.9506954 17.0623515,27.8309493 L17.7466151,27.7226075 L18.442283,25.6299015 C19.0010983,25.4474312 19.5513602,25.2193434 20.0845156,24.9513401 L22.0546244,25.9378201 L22.6162907,25.5329642 C23.2292768,25.0910439 23.7453256,24.6548259 24.192948,24.1986502 C24.657677,23.7339212 25.0910439,23.2150214 25.5244109,22.6191418 L25.9292668,22.0546244 L24.9427868,20.0845156 C25.2136412,19.5570624 25.441729,19.0068005 25.6241993,18.4394319 L27.7140542,17.7409129 L27.822396,17.0566493 C27.9421421,16.3068105 27.9991641,15.6339514 27.9991641,14.9981565 C28.0077173,14.3680638 27.9506954,13.6923535 27.8252471,12.9396636 Z M25.9577778,14.9810499 L25.9577778,14.9953054 C25.9577778,15.3802036 25.9321179,15.7708041 25.8836492,16.1899155 L24.8743605,16.5263451 L23.9819668,16.8285615 L23.7054102,17.7266574 C23.5485998,18.2455573 23.3404697,18.7502016 23.0867219,19.2291861 L22.6476528,20.0588557 L23.5428976,21.8464942 C23.2805966,22.1772216 23.0211467,22.4708847 22.7502924,22.7417391 L22.7445902,22.7474413 C22.479438,23.0154445 22.1857749,23.2748944 21.8550475,23.5343443 L20.0731112,22.6419506 L19.2462927,23.0724664 C18.7587549,23.3262142 18.2455573,23.5371954 17.7238063,23.7025591 L16.8314126,23.9819668 L16.5406006,24.8658072 L16.204171,25.8750959 C15.7879107,25.9264157 15.3944591,25.9492245 15.0095609,25.9492245 C14.6275137,25.9492245 14.2340622,25.9235646 13.8149507,25.8750959 L13.4785212,24.8658072 L13.1848581,23.9734135 L12.2867621,23.6968569 C11.7564579,23.5343443 11.2518135,23.3262142 10.7842334,23.0781686 L9.95171275,22.6448017 L9.11063879,23.0639132 L8.16122311,23.5371954 C7.83049572,23.2748944 7.53683261,23.0154445 7.26597829,22.7445902 C6.98942177,22.4680336 6.72997184,22.1743705 6.473373,21.8493453 L7.36291563,20.067409 L6.92954871,19.2405905 C6.67009877,18.7444995 6.45911751,18.237004 6.30515821,17.7295085 L6.02860169,16.8314126 L4.12977032,16.2013199 C4.07845055,15.7850596 4.05564177,15.391608 4.05564177,15.0067098 C4.05564177,14.6218115 4.08130165,14.2312111 4.12977032,13.8120996 L6.02289949,13.182007 L6.29945601,12.2867621 C6.45911751,11.7707134 6.67009877,11.2603668 6.92384651,10.7699779 L7.35721343,9.94315945 L6.9409531,9.10778769 L6.46767081,8.15837201 C6.96661298,7.53683261 7.53398151,6.96946408 8.15552091,6.4705219 L9.94030836,7.36291563 L10.7699779,6.92669761 C11.2489624,6.67580097 11.759309,6.46481971 12.2867621,6.29945601 L13.1791559,6.0200484 L13.4756701,5.13335687 L13.8120996,4.12406812 C14.2426155,4.07559946 14.6332159,4.04993957 15.0038587,4.04993957 C15.3859058,4.04993957 15.7793574,4.07559946 16.1956177,4.12406812 L16.8285615,6.0143462 L17.7209552,6.29090272 C18.2398551,6.45341531 18.7502016,6.66439658 19.2377394,6.91529322 L20.0645579,7.34866013 L21.8464942,6.45626641 C22.4680336,6.95520859 23.0382533,7.52257712 23.5428976,8.14696762 L22.653355,9.92890396 L23.0810197,10.7528713 C23.3347675,11.2432602 23.5485998,11.7564579 23.7111124,12.2782088 L23.9905201,13.1706026 L24.8772116,13.4671168 L25.8865003,13.8035464 C25.9406712,14.2312111 25.96348,14.6161093 25.9577778,14.9810499 Z M15.0067098,10.0343946 C12.2668044,10.0343946 10.0372457,12.2639533 10.0372457,15.0038587 C10.0372457,17.743764 12.2668044,19.9733228 15.0067098,19.9733228 C17.7466151,19.9733228 19.9761739,17.743764 19.9761739,15.0038587 C19.9761739,12.2639533 17.7466151,10.0343946 15.0067098,10.0343946 Z M17.0680537,17.0652026 C16.5177918,17.6154646 15.7850596,17.9205321 15.0067098,17.9205321 C14.22836,17.9205321 13.4956278,17.6183157 12.9453658,17.0652026 C12.3951039,16.5149407 12.0900364,15.7822085 12.0900364,15.0038587 C12.0900364,14.2255089 12.3922528,13.4927767 12.9453658,12.9425147 C13.4956278,12.3922528 14.22836,12.0871853 15.0067098,12.0871853 C15.7850596,12.0871853 16.5177918,12.3894017 17.0680537,12.9425147 C17.6183157,13.4956278 17.9233832,14.2255089 17.9233832,15.0038587 C17.9233832,15.7822085 17.6183157,16.5149407 17.0680537,17.0652026 Z" transform="translate(-2 -2)"/>
</svg>
