<svg xmlns="http://www.w3.org/2000/svg" width="27" height="27" viewBox="0 0 27 27">
  <path fill="#FFF" d="M27.4662722,4.96878953 L22.5362026,9.88997618 L20.5286427,7.88537729 L25.4439073,2.97899565 C22.938899,1.41854718 19.6048098,1.72353046 17.4314338,3.89394551 C15.7377402,5.58763912 15.1751496,7.98901238 15.7555062,10.1475834 L10.1592109,15.7409177 C7.99471785,15.1635222 5.59334458,15.7201907 3.89668998,17.4168453 C1.72331392,19.5872603 1.41833063,22.9213495 2.97877911,25.4204359 L7.89108275,20.5140542 L9.89864265,22.5186531 L4.96857299,27.4398398 C7.47950336,29.0624693 10.8668906,28.775252 13.0669156,26.581149 C14.7606092,24.8874554 15.3231998,22.4860821 14.7428432,20.327511 L20.3391385,14.7400988 C22.5036316,15.3174943 24.9050048,14.7608258 26.6016594,13.0641712 C28.8016845,10.8611851 29.0889018,7.4797199 27.4662722,4.96878953 Z M11.7788794,25.2901517 C10.8491245,26.2169456 9.62623039,26.669979 8.40925824,26.649252 L11.2222109,23.8392604 C11.9358126,23.1256587 11.9358126,21.9767896 11.2222109,21.2631879 L9.214651,19.258589 C8.50104933,18.5449874 7.34921924,18.5449874 6.63561756,19.258589 L3.82266491,22.0685807 C3.80193789,20.8516085 4.25497131,19.6316754 5.18472619,18.7019205 C6.65634458,17.2332631 8.85933066,16.9519679 10.6152053,17.8580347 C11.0327067,18.0741879 11.4235591,18.3554832 11.7729574,18.7048815 C12.1223557,19.0542798 12.403651,19.4480932 12.6227652,19.8626336 C13.5317931,21.6155473 13.2475368,23.8214943 11.7788794,25.2901517 Z M13.9581775,18.5331433 C13.7064922,18.13933 13.410392,17.7632826 13.0639546,17.4198063 C12.7204783,17.07633 12.344431,16.7772687 11.9506176,16.5285445 L16.5401719,11.9449121 C16.7918572,12.3387255 17.0879574,12.7147729 17.4343948,13.0582492 C17.7778711,13.4017255 18.1539184,13.7007868 18.5477318,13.949511 L13.9581775,18.5331433 Z M25.3136232,11.773174 C23.8420048,13.2418313 21.6390187,13.5231266 19.8831441,12.6170598 C19.4656427,12.4009066 19.0747903,12.1196113 18.725392,11.770213 C18.3759937,11.4208146 18.0946984,11.0270013 17.8755842,10.6124609 C16.9695173,8.85954721 17.2508126,6.65360012 18.722431,5.18790374 C19.6492249,4.26110986 20.87508,3.80807643 22.0920522,3.82880345 L19.2790995,6.63879511 C18.5654978,7.35239678 18.5654978,8.50126587 19.2790995,9.21486754 L21.2866594,11.2194664 C22.0002611,11.9330681 23.1520912,11.9330681 23.8656928,11.2194664 L26.6786455,8.40947478 C26.6964115,9.62348593 26.2404171,10.8434191 25.3136232,11.773174 Z" transform="translate(-2 -2)"/>
</svg>
