<svg xmlns="http://www.w3.org/2000/svg" width="26" height="28" viewBox="0 0 26 28">
  <path fill="#FFF" d="M27.6426395,12.8284545 L16.4525202,2.0593556 C15.6285232,1.31354813 14.3744841,1.31354813 13.5504871,2.0593556 L2.35736053,12.8284545 C1.91228188,13.2284239 1.87920171,13.9110783 2.27917104,14.3561569 C2.67914037,14.8012356 3.36480207,14.8343157 3.80687343,14.4343464 L15,3.66524748 L26.1931266,14.4343464 C26.6382052,14.8343157 27.3208596,14.8012356 27.720829,14.3561569 C28.1207983,13.9110783 28.0877181,13.2284239 27.6426395,12.8284545 Z M24.653395,16.8221332 C24.0549447,16.8221332 23.5707713,17.3063066 23.5707713,17.904757 L23.5707713,26.2349452 L19.2703492,26.2349452 L19.2703492,19.0174536 C19.2703492,17.8205529 18.3020024,16.8522061 17.1051017,16.8522061 L12.8948983,16.8522061 C11.6979976,16.8522061 10.7296508,17.8205529 10.7296508,19.0174536 L10.7296508,26.2349452 L6.42922872,26.2349452 L6.42922872,17.904757 C6.42922872,17.3063066 5.94505532,16.8221332 5.34660497,16.8221332 C4.74815463,16.8221332 4.26398123,17.3063066 4.26398123,17.904757 L4.26398123,26.2349452 C4.26398123,27.4318459 5.23232802,28.4001927 6.42922872,28.4001927 L23.5707713,28.4001927 C24.767672,28.4001927 25.7360188,27.4318459 25.7360188,26.2349452 L25.7360188,17.904757 C25.7360188,17.3063066 25.2518454,16.8221332 24.653395,16.8221332 Z M12.8948983,19.0174536 L17.1051017,19.0174536 L17.1051017,26.2349452 L12.8948983,26.2349452 L12.8948983,19.0174536 Z" transform="translate(-2 -1)"/>
</svg>
